<svg 
          width="17.999998092651367" 
          height="17.999998092651367" fill="none" 
          xmlns="http://www.w3.org/2000/svg">
          <path d="M 15.999998859443991 1.999999857430499 L 15.999998859443991 10.999999111830556 L 10.999999111830556 10.999999111830556 L 10.999999111830556 15.999998859443991 L 1.999999857430499 15.999998859443991 L 1.999999857430499 1.999999857430499 L 15.999998859443991 1.999999857430499 Z M 15.999998859443991 0 L 1.999999857430499 0 C 0.8999999046325684 0 0 0.8999999046325684 0 1.999999857430499 L 0 15.999998859443991 C 0 17.09999881224192 0.8999999046325684 17.999998092651367 1.999999857430499 17.999998092651367 L 11.999998728434244 17.999998092651367 L 17.999998092651367 11.999998728434244 L 17.999998092651367 1.999999857430499 C 17.999998092651367 0.8999999046325684 17.09999881224192 0 15.999998859443991 0 Z M 8.999999046325684 10.999999111830556 L 3.999999714860998 10.999999111830556 L 3.999999714860998 8.999999046325684 L 8.999999046325684 8.999999046325684 L 8.999999046325684 10.999999111830556 Z M 13.999999626236615 6.999999813118308 L 3.999999714860998 6.999999813118308 L 3.999999714860998 4.999999747613434 L 13.999999626236615 4.999999747613434 L 13.999999626236615 6.999999813118308 Z" fill="rgb(49.93750177323818,49.93750177323818,49.93750177323818)"/>
        </svg>